<svg width="50" height="26" viewBox="0 0 50 26" fill="none" xmlns="http://www.w3.org/2000/svg">
<path d="M0.217216 7.05449C0.448912 7.54761 4.5036 15.0214 4.57601 15.083C4.63393 15.1446 5.37246 13.7732 5.37246 13.6037C5.37246 13.4496 1.9839 7.16236 1.72324 6.82335C1.63636 6.71548 1.24537 6.63843 0.796457 6.63843H0L0.217216 7.05449Z" fill="#1D4ED8"/>
<path d="M3.06997 6.97744C3.24374 7.34727 5.96617 12.3863 6.0241 12.4633C6.08202 12.5404 6.82055 11.0764 6.80607 10.8915C6.80607 10.7991 6.29924 9.81284 5.69103 8.71875L4.57599 6.71547L3.73609 6.66924C2.89619 6.62301 2.89619 6.62301 3.06997 6.97744Z" fill="#1D4ED8"/>
<path d="M9.36924 8.56465C8.84792 9.53546 8.41349 10.3984 8.41349 10.4909C8.41349 10.5987 8.68863 10.645 9.1665 10.6141L9.934 10.5679L10.4698 9.58169C10.7594 9.04235 11.078 8.51842 11.1649 8.42596C11.3676 8.21022 12.3523 8.1794 12.2944 8.41055C12.2654 8.50301 11.8889 9.24268 11.4545 10.0748L10.658 11.5696H7.7184L6.47303 13.9118L5.22766 16.2387L6.32822 18.3036C6.93642 19.444 7.47222 20.3223 7.51566 20.2915C7.54462 20.2453 8.29764 18.9046 9.1665 17.3174L10.7305 14.4204L9.99192 14.3741C9.57197 14.3433 9.18098 14.3895 9.10858 14.4666C9.02169 14.5591 8.65967 15.1909 8.26868 15.8997C7.89217 16.6086 7.53014 17.1787 7.47222 17.1633C7.4143 17.1633 7.24052 16.9476 7.09571 16.701L6.84953 16.2695L7.67495 14.7286L8.51485 13.1876L11.4979 13.0335L13.0764 10.1056C13.9597 8.4876 14.6983 7.0853 14.7417 6.97744C14.7996 6.83875 14.3073 6.79252 12.5695 6.79252H10.3395L9.36924 8.56465Z" fill="#1D4ED8"/>
<path d="M0.217216 7.05449C0.448912 7.54761 4.5036 15.0214 4.57601 15.083C4.63393 15.1446 5.37246 13.7732 5.37246 13.6037C5.37246 13.4496 1.9839 7.16236 1.72324 6.82335C1.63636 6.71548 1.24537 6.63843 0.796457 6.63843H0L0.217216 7.05449Z" fill="#1D4ED8"/>
<path d="M3.06997 6.97744C3.24374 7.34727 5.96617 12.3863 6.0241 12.4633C6.08202 12.5404 6.82055 11.0764 6.80607 10.8915C6.80607 10.7991 6.29924 9.81284 5.69103 8.71875L4.57599 6.71547L3.73609 6.66924C2.89619 6.62301 2.89619 6.62301 3.06997 6.97744Z" fill="#1D4ED8"/>
<path d="M9.36924 8.56465C8.84792 9.53546 8.41349 10.3984 8.41349 10.4909C8.41349 10.5987 8.68863 10.645 9.1665 10.6141L9.934 10.5679L10.4698 9.58169C10.7594 9.04235 11.078 8.51842 11.1649 8.42596C11.3676 8.21022 12.3523 8.1794 12.2944 8.41055C12.2654 8.50301 11.8889 9.24268 11.4545 10.0748L10.658 11.5696H7.7184L6.47303 13.9118L5.22766 16.2387L6.32822 18.3036C6.93642 19.444 7.47222 20.3223 7.51566 20.2915C7.54462 20.2453 8.29764 18.9046 9.1665 17.3174L10.7305 14.4204L9.99192 14.3741C9.57197 14.3433 9.18098 14.3895 9.10858 14.4666C9.02169 14.5591 8.65967 15.1909 8.26868 15.8997C7.89217 16.6086 7.53014 17.1787 7.47222 17.1633C7.4143 17.1633 7.24052 16.9476 7.09571 16.701L6.84953 16.2695L7.67495 14.7286L8.51485 13.1876L11.4979 13.0335L13.0764 10.1056C13.9597 8.4876 14.6983 7.0853 14.7417 6.97744C14.7996 6.83875 14.3073 6.79252 12.5695 6.79252H10.3395L9.36924 8.56465Z" fill="#1D4ED8"/>
<path d="M18.3772 11L16.5421 6.41223H17.3482L18.4427 9.19766C18.4951 9.33311 18.541 9.45545 18.5803 9.56468C18.624 9.67392 18.6612 9.77441 18.6918 9.86617C18.7223 9.95355 18.7507 10.0366 18.777 10.1152C18.8032 10.1939 18.8294 10.2725 18.8556 10.3512L18.6852 10.3577C18.7158 10.2528 18.7486 10.1436 18.7835 10.03C18.8185 9.91641 18.8578 9.79189 18.9015 9.65644C18.9495 9.52099 19.0063 9.36807 19.0719 9.19766L20.0877 6.41223H20.9135L19.0653 11H18.3772ZM23.8272 11.0655C23.5039 11.0655 23.2046 11.0066 22.9293 10.8886C22.6584 10.7706 22.4203 10.6068 22.215 10.397C22.014 10.1829 21.8567 9.93389 21.7431 9.64989C21.6338 9.36151 21.5792 9.04692 21.5792 8.70612C21.5792 8.36531 21.6338 8.05291 21.7431 7.7689C21.8567 7.48053 22.014 7.23148 22.215 7.02175C22.4203 6.80766 22.6584 6.64162 22.9293 6.52365C23.2046 6.40568 23.5039 6.34669 23.8272 6.34669C24.1506 6.34669 24.4477 6.40568 24.7186 6.52365C24.9938 6.64162 25.232 6.80766 25.433 7.02175C25.6383 7.23585 25.7956 7.48708 25.9048 7.77546C26.0184 8.05946 26.0752 8.36968 26.0752 8.70612C26.0752 9.04255 26.0184 9.35496 25.9048 9.64333C25.7956 9.92734 25.6383 10.1764 25.433 10.3905C25.232 10.6046 24.9938 10.7706 24.7186 10.8886C24.4477 11.0066 24.1506 11.0655 23.8272 11.0655ZM23.8272 10.3774C24.0501 10.3774 24.2532 10.3359 24.4368 10.2528C24.6246 10.1698 24.7863 10.054 24.9217 9.90549C25.0572 9.75256 25.1621 9.57561 25.2363 9.37462C25.315 9.16926 25.3543 8.94643 25.3543 8.70612C25.3543 8.46581 25.315 8.24516 25.2363 8.04417C25.1621 7.83881 25.0572 7.66185 24.9217 7.5133C24.7863 7.36037 24.6246 7.2424 24.4368 7.15938C24.2532 7.07637 24.0501 7.03486 23.8272 7.03486C23.6044 7.03486 23.399 7.07637 23.2112 7.15938C23.0277 7.2424 22.866 7.35819 22.7262 7.50674C22.5907 7.6553 22.4859 7.83226 22.4116 8.03761C22.3373 8.2386 22.3002 8.46144 22.3002 8.70612C22.3002 8.94643 22.3373 9.16926 22.4116 9.37462C22.4859 9.57998 22.5907 9.75693 22.7262 9.90549C22.866 10.054 23.0277 10.1698 23.2112 10.2528C23.399 10.3359 23.6044 10.3774 23.8272 10.3774ZM28.4286 11V8.71267L28.4744 9.03381L26.6197 6.41223H27.4717L28.8873 8.44396L28.7235 8.4243L30.0015 6.41223H30.8142L29.0381 9.10591L29.1364 8.66024V11H28.4286ZM30.913 11L32.6892 6.41223H33.4101L35.1731 11H34.4194L33.3708 8.23423C33.3577 8.20365 33.3314 8.12937 33.2921 8.0114C33.2572 7.89343 33.2157 7.76235 33.1676 7.61816C33.1195 7.47397 33.0758 7.3429 33.0365 7.22492C32.9972 7.10258 32.971 7.02394 32.9579 6.98898L33.1086 6.98243C33.0824 7.05671 33.0496 7.15065 33.0103 7.26425C32.9753 7.37785 32.936 7.49801 32.8923 7.62472C32.853 7.75142 32.8137 7.87158 32.7744 7.98518C32.735 8.09441 32.7023 8.18617 32.676 8.26045L31.634 11H30.913ZM31.6995 9.85961L31.9617 9.178H34.0458L34.3473 9.85961H31.6995ZM38.2971 11.0655C37.9651 11.0655 37.6548 11.0066 37.3665 10.8886C37.0781 10.7662 36.8247 10.598 36.6062 10.3839C36.3877 10.1698 36.2173 9.92078 36.095 9.63678C35.977 9.3484 35.918 9.03818 35.918 8.70612C35.918 8.37842 35.977 8.07257 36.095 7.78856C36.2173 7.50456 36.3856 7.25769 36.5997 7.04797C36.8181 6.83387 37.0715 6.66784 37.3599 6.54987C37.6483 6.4319 37.9585 6.37291 38.2906 6.37291C38.5222 6.37291 38.7472 6.40568 38.9656 6.47122C39.1885 6.53676 39.3895 6.62851 39.5686 6.74649C39.7477 6.86446 39.8941 6.99991 40.0077 7.15283L39.5489 7.63127C39.4179 7.50456 39.2824 7.3997 39.1426 7.31668C39.0071 7.23366 38.8673 7.17031 38.7231 7.12661C38.579 7.08292 38.4348 7.06108 38.2906 7.06108C38.0546 7.06108 37.8362 7.10258 37.6352 7.1856C37.4386 7.26862 37.2638 7.3844 37.1109 7.53296C36.9623 7.68152 36.8465 7.85629 36.7635 8.05728C36.6805 8.25389 36.639 8.47017 36.639 8.70612C36.639 8.93332 36.6827 9.1496 36.7701 9.35496C36.8574 9.55595 36.9776 9.7329 37.1305 9.88583C37.2878 10.0388 37.467 10.1589 37.668 10.2463C37.8733 10.3337 38.0896 10.3774 38.3168 10.3774C38.4872 10.3774 38.6489 10.3533 38.8018 10.3053C38.9547 10.2528 39.0902 10.1808 39.2081 10.089C39.3261 9.99725 39.4179 9.89238 39.4834 9.77441C39.5489 9.65207 39.5817 9.52318 39.5817 9.38773V9.25665L39.68 9.3484H38.2775V8.64713H40.3092C40.3179 8.69519 40.3245 8.74326 40.3289 8.79132C40.3332 8.83501 40.3354 8.8787 40.3354 8.9224C40.3398 8.96172 40.342 9.00104 40.342 9.04037C40.342 9.34185 40.2895 9.61712 40.1847 9.86617C40.0798 10.1108 39.9334 10.3228 39.7456 10.5019C39.562 10.681 39.3458 10.8209 39.0967 10.9214C38.852 11.0175 38.5855 11.0655 38.2971 11.0655ZM41.6569 11V6.41223H44.5471V7.09385H42.3647V10.3184H44.5471V11H41.6569ZM41.978 8.98794V8.30633H44.1867V8.98794H41.978ZM46.0759 11V6.41223H48.029C48.2911 6.41223 48.5315 6.47777 48.7499 6.60885C48.9728 6.73556 49.1497 6.91033 49.2808 7.13317C49.4119 7.35163 49.4774 7.5985 49.4774 7.87377C49.4774 8.12282 49.4119 8.35439 49.2808 8.56848C49.1497 8.78258 48.9749 8.95517 48.7565 9.08625C48.538 9.21296 48.2955 9.27631 48.029 9.27631H46.7837V11H46.0759ZM48.8023 11L47.6357 8.92895L48.3632 8.7651L49.6609 11.0066L48.8023 11ZM46.7837 8.5947H48.0945C48.2212 8.5947 48.3348 8.56411 48.4353 8.50294C48.5358 8.43741 48.6145 8.35002 48.6713 8.24079C48.7281 8.12718 48.7565 8.00266 48.7565 7.86721C48.7565 7.71429 48.7193 7.58102 48.6451 7.46742C48.5751 7.34945 48.4747 7.25769 48.3436 7.19215C48.2169 7.12661 48.0727 7.09385 47.911 7.09385H46.7837V8.5947Z" fill="black"/>
<path d="M18.4427 19.2579C18.1937 19.2579 17.9621 19.2252 17.748 19.1596C17.5383 19.0941 17.346 18.9958 17.1712 18.8647C17.0008 18.7292 16.8479 18.5632 16.7125 18.3666L17.1975 17.8095C17.4116 18.1154 17.6169 18.3273 17.8135 18.4452C18.0101 18.5632 18.2439 18.6222 18.5148 18.6222C18.6808 18.6222 18.8316 18.596 18.967 18.5435C19.1025 18.4911 19.2095 18.419 19.2882 18.3273C19.3668 18.2355 19.4061 18.1306 19.4061 18.0127C19.4061 17.934 19.393 17.8597 19.3668 17.7898C19.3406 17.7199 19.2991 17.6566 19.2423 17.5998C19.1899 17.543 19.1199 17.4905 19.0326 17.4425C18.9495 17.3944 18.8512 17.3529 18.7376 17.318C18.624 17.2786 18.493 17.2459 18.3444 17.2196C18.1085 17.1716 17.9031 17.1082 17.7283 17.0296C17.5536 16.9509 17.4072 16.8526 17.2892 16.7347C17.1712 16.6167 17.0839 16.4834 17.0271 16.3349C16.9703 16.1819 16.9419 16.0115 16.9419 15.8237C16.9419 15.6401 16.9812 15.4697 17.0598 15.3124C17.1428 15.1551 17.2543 15.0197 17.3941 14.9061C17.5383 14.7881 17.7065 14.6986 17.8987 14.6374C18.091 14.5718 18.2985 14.5391 18.5214 14.5391C18.7573 14.5391 18.9736 14.5697 19.1702 14.6308C19.3668 14.692 19.5416 14.7838 19.6945 14.9061C19.8474 15.0241 19.9741 15.1704 20.0746 15.3452L19.5765 15.8368C19.4892 15.6926 19.3908 15.5724 19.2816 15.4763C19.1724 15.3758 19.0522 15.3015 18.9211 15.2535C18.7901 15.201 18.6502 15.1748 18.5017 15.1748C18.3313 15.1748 18.1827 15.201 18.056 15.2535C17.9293 15.3059 17.8288 15.3802 17.7545 15.4763C17.6846 15.568 17.6497 15.6773 17.6497 15.804C17.6497 15.8957 17.6672 15.9809 17.7021 16.0596C17.7371 16.1339 17.7895 16.2016 17.8594 16.2628C17.9337 16.3196 18.032 16.372 18.1543 16.4201C18.2767 16.4638 18.423 16.5031 18.5934 16.538C18.8338 16.5905 19.0479 16.6582 19.2357 16.7412C19.4236 16.8199 19.5831 16.9138 19.7142 17.023C19.8453 17.1323 19.9436 17.2546 20.0091 17.39C20.079 17.5255 20.114 17.6719 20.114 17.8292C20.114 18.1219 20.0462 18.3753 19.9108 18.5894C19.7753 18.8035 19.5831 18.9695 19.334 19.0875C19.085 19.2011 18.7879 19.2579 18.4427 19.2579ZM23.0372 19.2579C22.7139 19.2579 22.4146 19.1989 22.1393 19.081C21.8684 18.963 21.6303 18.7991 21.4249 18.5894C21.2239 18.3753 21.0666 18.1263 20.953 17.8423C20.8438 17.5539 20.7892 17.2393 20.7892 16.8985C20.7892 16.5577 20.8438 16.2453 20.953 15.9613C21.0666 15.6729 21.2239 15.4239 21.4249 15.2141C21.6303 15 21.8684 14.834 22.1393 14.716C22.4146 14.5981 22.7139 14.5391 23.0372 14.5391C23.3605 14.5391 23.6576 14.5981 23.9285 14.716C24.2038 14.834 24.4419 15 24.6429 15.2141C24.8483 15.4282 25.0055 15.6795 25.1148 15.9678C25.2284 16.2518 25.2852 16.5621 25.2852 16.8985C25.2852 17.2349 25.2284 17.5473 25.1148 17.8357C25.0055 18.1197 24.8483 18.3688 24.6429 18.5829C24.4419 18.797 24.2038 18.963 23.9285 19.081C23.6576 19.1989 23.3605 19.2579 23.0372 19.2579ZM23.0372 18.5698C23.26 18.5698 23.4632 18.5282 23.6467 18.4452C23.8346 18.3622 23.9962 18.2464 24.1317 18.0979C24.2671 17.9449 24.372 17.768 24.4463 17.567C24.5249 17.3616 24.5642 17.1388 24.5642 16.8985C24.5642 16.6582 24.5249 16.4375 24.4463 16.2366C24.372 16.0312 24.2671 15.8542 24.1317 15.7057C23.9962 15.5528 23.8346 15.4348 23.6467 15.3518C23.4632 15.2688 23.26 15.2272 23.0372 15.2272C22.8143 15.2272 22.609 15.2688 22.4211 15.3518C22.2376 15.4348 22.0759 15.5506 21.9361 15.6991C21.8007 15.8477 21.6958 16.0246 21.6215 16.23C21.5472 16.431 21.5101 16.6538 21.5101 16.8985C21.5101 17.1388 21.5472 17.3616 21.6215 17.567C21.6958 17.7724 21.8007 17.9493 21.9361 18.0979C22.0759 18.2464 22.2376 18.3622 22.4211 18.4452C22.609 18.5282 22.8143 18.5698 23.0372 18.5698ZM28.1049 19.2579C27.7859 19.2579 27.4932 19.2011 27.2266 19.0875C26.9601 18.9739 26.7285 18.8123 26.5319 18.6025C26.3353 18.3884 26.1824 18.1372 26.0731 17.8488C25.9683 17.5604 25.9158 17.2437 25.9158 16.8985C25.9158 16.5708 25.9726 16.2671 26.0863 15.9875C26.2042 15.7035 26.3659 15.4544 26.5712 15.2404C26.7766 15.0263 27.0147 14.8602 27.2856 14.7423C27.5565 14.6243 27.8493 14.5653 28.1639 14.5653C28.3867 14.5653 28.603 14.6002 28.8127 14.6702C29.0268 14.7357 29.219 14.8296 29.3894 14.952C29.5642 15.0699 29.7062 15.2054 29.8154 15.3583L29.3436 15.8499C29.2169 15.7232 29.088 15.6183 28.9569 15.5353C28.8302 15.4479 28.6991 15.3824 28.5636 15.3387C28.4326 15.295 28.2993 15.2731 28.1639 15.2731C27.9498 15.2731 27.7488 15.3146 27.5609 15.3976C27.3774 15.4763 27.2157 15.5877 27.0759 15.7319C26.9404 15.8761 26.8334 16.0487 26.7548 16.2497C26.6761 16.4463 26.6368 16.6626 26.6368 16.8985C26.6368 17.1476 26.6739 17.3748 26.7482 17.5801C26.8268 17.7811 26.9361 17.9537 27.0759 18.0979C27.2157 18.2421 27.3817 18.3535 27.574 18.4321C27.7706 18.5064 27.9869 18.5435 28.2228 18.5435C28.367 18.5435 28.509 18.5239 28.6488 18.4846C28.7887 18.4452 28.9197 18.3884 29.0421 18.3142C29.1644 18.2399 29.2758 18.1525 29.3763 18.052L29.7302 18.6287C29.6298 18.7467 29.4921 18.8538 29.3173 18.9499C29.1469 19.046 28.9547 19.1225 28.7406 19.1793C28.5309 19.2317 28.319 19.2579 28.1049 19.2579ZM30.5214 19.1924V18.537H31.262V15.26H30.5214V14.6046H32.7104V15.26H31.9698V18.537H32.7104V19.1924H30.5214ZM33.3431 19.1924L35.1192 14.6046H35.8402L37.6032 19.1924H36.8495L35.8008 16.4266C35.7877 16.396 35.7615 16.3218 35.7222 16.2038C35.6872 16.0858 35.6457 15.9547 35.5977 15.8105C35.5496 15.6664 35.5059 15.5353 35.4666 15.4173C35.4273 15.295 35.4011 15.2163 35.3879 15.1814L35.5387 15.1748C35.5125 15.2491 35.4797 15.343 35.4404 15.4566C35.4054 15.5702 35.3661 15.6904 35.3224 15.8171C35.2831 15.9438 35.2438 16.064 35.2044 16.1776C35.1651 16.2868 35.1323 16.3786 35.1061 16.4528L34.064 19.1924H33.3431ZM34.1296 18.052L34.3917 17.3704H36.4759L36.7774 18.052H34.1296ZM38.4106 19.1924V14.6046H39.1184V18.5108H41.2681V19.1924H38.4106Z" fill="black"/>
<path d="M42.2185 19.1926L43.9947 14.6049H44.7156L46.4786 19.1926H45.7249L44.6763 16.4269C44.6632 16.3963 44.6369 16.322 44.5976 16.204C44.5627 16.0861 44.5212 15.955 44.4731 15.8108C44.425 15.6666 44.3813 15.5355 44.342 15.4176C44.3027 15.2952 44.2765 15.2166 44.2634 15.1816L44.4141 15.1751C44.3879 15.2493 44.3551 15.3433 44.3158 15.4569C44.2808 15.5705 44.2415 15.6906 44.1978 15.8173C44.1585 15.9441 44.1192 16.0642 44.0799 16.1778C44.0405 16.287 44.0078 16.3788 43.9815 16.4531L42.9395 19.1926H42.2185ZM43.005 18.0522L43.2672 17.3706H45.3513L45.6528 18.0522H43.005ZM47.1156 19.1926V18.5372H47.8562V15.2603H47.1156V14.6049H49.3046V15.2603H48.564V18.5372H49.3046V19.1926H47.1156Z" fill="#1D4ED8"/>
</svg>
